Sinopse e detalhes

O soldado americano John Carter (Taylor Kitsch), para a tristeza de seus parentes, faleceu no planeta Terra. Contudo, para a alegria de outros, ressuscitou em Marte. Agora, em meio a uma guerra civil no planeta vermelho, habitado por seres de cor verde e criaturas gigantescas, ele é visto como a única esperança de ajudar a princesa Deja Thoris (Lynn Collins) a salvar o seu mundo, numa batalha que mudará para sempre o seu destino.


Format : Matroska
Format version : Version 2
File size : 891 MiB
Duration : 2h 12mn
Overall bit rate mode : Variable
Overall bit rate : 944 Kbps
Encoded date : UTC 2013-06-05 20:37:19
Writing application : mkvmerge v5.8.0 ('No Sleep / Pillow') built on Sep 2 2012 15:37:04
Writing library : libebml v1.2.3 + libmatroska v1.3.0

Video
ID : 1
Format : AVC
Format/Info : Advanced Video Codec
Format profile : High@L4.0
Format settings, CABAC : Yes
Format settings, ReFrames : 6 frames
Muxing mode : Header stripping
Codec ID : V_MPEG4/ISO/AVC
Duration : 2h 12mn
Bit rate : 804 Kbps
Width : 1 280 pixels
Height : 536 pixels
Display aspect ratio : 2.40:1
Frame rate mode : Constant
Frame rate : 23.976 fps
Color space : YUV
Chroma subsampling : 4:2:0
Bit depth : 8 bits
Scan type : Progressive
Bits/(Pixel*Frame) : 0.049
Stream size : 737 MiB (83%)
Title : John Carter - Entre dois mundos(by fantasma)
Writing library : x264 core 120 r2164 da19765
Encoding settings : cabac=1 / ref=6 / deblock=1:-2:-1 / analyse=0x3:0x133 / me=umh / subme=9 / psy=1 / psy_rd=1.00:0.15 / mixed_ref=1 / me_range=16 / chroma_me=1 / trellis=2 / 8x8dct=1 / cqm=0 / deadzone=21,11 / fast_pskip=1 / chroma_qp_offset=-3 / threads=12 / sliced_threads=0 / nr=0 / decimate=1 / interlaced=0 / bluray_compat=0 / constrained_intra=0 / bframes=3 / b_pyramid=2 / b_adapt=2 / b_bias=0 / direct=3 / weightb=1 / open_gop=0 / weightp=2 / keyint=240 / keyint_min=23 / scenecut=40 / intra_refresh=0 / rc_lookahead=60 / rc=2pass / mbtree=1 / bitrate=804 / ratetol=1.0 / qcomp=0.60 / qpmin=10 / qpmax=51 / qpstep=4 / cplxblur=20.0 / qblur=0.5 / ip_ratio=1.40 / aq=1:1.00
Language : Portuguese
Default : Yes
Forced : No

Audio
ID : 2
Format : MPEG Audio
Format version : Version 1
Format profile : Layer 3
Mode : Joint stereo
Mode extension : MS Stereo
Muxing mode : Header stripping
Codec ID : A_MPEG/L3
Codec ID/Hint : MP3
Duration : 2h 6mn
Bit rate mode : Variable
Bit rate : 144 Kbps
Channel(s) : 2 channels
Sampling rate : 48.0 KHz
Compression mode : Lossy
Stream size : 130 MiB (15%)
Title : por
Writing library : LAME3.99r
Encoding settings : -m j -V 4 -q 2 -lowpass 17.5 --abr 144
Language : Portuguese
Default : Yes
Forced : No

Text
ID : 3
Format : UTF-8
Codec ID : S_TEXT/UTF8
Codec ID/Info : UTF-8 Plain Text
Title : Credito
Language : Portuguese
Default : Yes
Forced : No